<?xml version="1.0" encoding="UTF-8"?>
<svg xmlns="http://www.w3.org/2000/svg" viewBox="0 0 32 32">
  <defs>
    <style>
      .cls-1 {
        fill: #fff;
      }
    </style>
  </defs>
  <g id="Layer_2" data-name="Layer 2">
    <path class="cls-1" d="M23.23.06h-14.51C3.92.06.02,3.96.02,8.76v14.54C.02,28.1,3.92,32,8.72,32h14.51c4.8,0,8.7-3.89,8.7-8.7v-14.54C31.93,3.96,28.03.06,23.23.06ZM28.69,22.74c0,3.32-2.69,6.02-6.02,6.02h-13.39c-3.32,0-6.02-2.69-6.02-6.02v-13.42c0-3.32,2.69-6.02,6.02-6.02h13.39c3.32,0,6.02,2.69,6.02,6.02v13.42Z"/>
  </g>
  <g id="Layer_3" data-name="Layer 3">
    <path class="cls-1" d="M16.06,7.49c-4.65,0-8.41,3.77-8.41,8.41s3.77,8.41,8.41,8.41,8.41-3.77,8.41-8.41-3.77-8.41-8.41-8.41ZM16.06,21.39c-3.03,0-5.49-2.46-5.49-5.49s2.46-5.49,5.49-5.49,5.49,2.46,5.49,5.49-2.46,5.49-5.49,5.49Z"/>
    <circle class="cls-1" cx="24.53" cy="7.43" r="1.87"/>
  </g>
</svg>