<?xml version="1.0" encoding="UTF-8"?>
<svg id="Layer_3" data-name="Layer 3" xmlns="http://www.w3.org/2000/svg" viewBox="0 0 32 32">
  <defs>
    <style>
      .cls-1 {
        fill: #fff;
      }
    </style>
  </defs>
  <path class="cls-1" d="M27.4.22H4.67C2.25.22.29,2.18.29,4.59v22.73c0,2.41,1.96,4.37,4.37,4.37h22.73c2.41,0,4.37-1.96,4.37-4.37V4.59c0-2.41-1.96-4.37-4.37-4.37ZM9.91,26.45h-4.37v-14.86h4.37v14.86ZM7.71,9.84h-.02c-1.3,0-2.15-.97-2.15-2.19s.87-2.18,2.2-2.18,2.15.94,2.17,2.18c0,1.21-.84,2.19-2.2,2.19ZM22.15,26.45v-7.96c0-1.92-1.07-3.23-2.79-3.23-1.31,0-2.02.88-2.37,1.74-.13.31-.09,1.15-.09,1.58v7.87h-4.37v-14.86h4.37v2.29c.63-.98,1.62-2.29,4.14-2.29,3.13,0,5.47,1.97,5.47,6.36v8.5s-4.37,0-4.37,0Z"/>
</svg>